# xmcd
#
# Track frame offsets:
#	150
#	11775
#	40450
#	50337
#	63387
#	78675
#	91462
#	104500
#	117437
#	128812
#	141250
#	153000
#	165062
#	177187
#	187512
#	200775
#
# Disc length: 2876 seconds
#
# Revision: 0
# Processed by: cddbd v1.5.2PL0 Copyright (c) Steve Scherf et al.
# Submitted via: EasyCDDAExtractor 16.0.6.1
#
DISCID=d30b3a10
DTITLE=Χορωδία - Das Dritte Reich 2 Die S.A.
DYEAR=1993
DGENRE=Εθνικοσοσιαλιστική
TTITLE0=Χορωδία - Volk ans gewehr
TTITLE1=Χορωδία - Sieg der deutschen Nation
TTITLE2=Χορωδία - Durch Gross-Berlin marschieren wir
TTITLE3=Χορωδία - In Munchen sind viele gefallen
TTITLE4=Άνευ ερμηνευτού - Duppler Schanzen marsch
TTITLE5=Χορωδία - Deutsche Kameraden
TTITLE6=Άνευ ερμηνευτού - SA Totenmarsch
TTITLE7=Άνευ ερμηνευτού - Braunschweig Marsch
TTITLE8=Χορωδία - Lisa, Lisa!
TTITLE9=Χορωδία - Mein Regiment, mein Heimatland
TTITLE10=Άνευ ερμηνευτού - Der Sturmmarsch der SA
TTITLE11=Χορωδία - Es pfeift von allen Dachern
TTITLE12=Χορωδία - Die alte Garde
TTITLE13=Χορωδία - Die braune Kompanie
TTITLE14=Χορωδία - Flieg deutsche Fahne, Flieg!
TTITLE15=Χορωδία - Horst Wessel Lied
EXTD=
EXTT0=
EXTT1=
EXTT2=
EXTT3=
EXTT4=
EXTT5=
EXTT6=
EXTT7=
EXTT8=
EXTT9=
EXTT10=
EXTT11=
EXTT12=
EXTT13=
EXTT14=
EXTT15=
PLAYORDER=
